<?xml version="1.0" encoding="utf-8" ?>
<svg baseProfile="full" height="836" version="1.1" width="872" xmlns="http://www.w3.org/2000/svg" xmlns:ev="http://www.w3.org/2001/xml-events" xmlns:xlink="http://www.w3.org/1999/xlink"><defs /><polygon fill="black" points="193,298 193,301 194,302 194,306 195,307 195,311 196,312 196,316 197,317 197,321 198,322 198,326 199,327 199,331 200,332 200,336 201,337 201,341 202,342 202,346 203,347 203,351 204,352 204,356 205,357 205,361 206,362 206,366 207,367 207,371 208,372 208,377 209,378 209,382 210,383 210,387 211,388 211,392 212,393 212,398 213,399 213,401 214,402 214,404 216,406 216,407 220,411 220,412 226,418 226,419 231,424 231,425 236,430 236,431 242,437 242,438 247,443 247,444 255,452 256,452 257,453 258,453 259,454 262,454 263,455 285,455 286,454 288,454 289,453 290,453 291,452 292,452 295,449 296,449 299,446 299,445 304,440 304,439 310,433 310,432 315,427 315,426 321,420 321,419 326,414 326,413 333,406 333,405 334,404 334,403 335,402 335,400 336,399 336,395 337,394 337,389 338,388 338,383 339,382 339,378 340,377 340,372 341,371 341,367 342,366 342,361 343,360 343,356 344,355 344,350 345,349 345,344 346,343 346,339 347,338 347,334 348,333 348,328 349,327 349,322 350,321 350,317 351,316 351,311 352,310 352,306 353,305 353,299 354,298 346,298 345,299 340,299 339,300 336,300 335,301 333,301 332,302 331,302 330,303 329,303 328,304 327,304 319,312 319,313 315,317 315,318 311,322 235,322 234,321 234,320 231,317 231,316 227,312 227,311 221,305 220,305 218,303 217,303 216,302 215,302 214,301 212,301 211,300 208,300 207,299 201,299 200,298" /><polygon fill="white" points="222,365 223,364 226,364 227,365 230,365 231,366 234,366 235,367 238,367 239,368 242,368 243,369 246,369 247,370 249,370 250,371 253,371 254,372 257,372 258,373 260,373 261,374 261,379 262,380 262,391 263,392 263,405 264,406 263,407 262,407 261,406 261,405 260,404 260,402 259,401 259,400 258,399 258,398 256,396 256,395 254,393 253,393 252,392 251,392 250,391 249,391 248,390 247,390 246,389 244,389 243,388 242,388 241,387 239,387 238,386 237,386 234,383 234,382 232,380 232,379 230,377 230,376 228,374 228,373 226,371 226,370 224,368 224,367" /><polygon fill="white" points="323,364 324,363 325,364 325,366 323,368 323,369 320,372 320,373 318,375 318,376 315,379 315,380 313,382 313,383 309,387 308,387 307,388 305,388 304,389 303,389 302,390 300,390 299,391 298,391 297,392 295,392 294,393 293,393 290,396 290,397 289,398 289,399 288,400 288,401 287,402 287,404 286,405 286,407 285,408 284,407 284,396 285,395 285,384 286,383 286,375 287,374 289,374 290,373 292,373 293,372 295,372 296,371 299,371 300,370 302,370 303,369 306,369 307,368 309,368 310,367 313,367 314,366 316,366 317,365 320,365 321,364" /><polygon fill="white" points="351,299 352,298 353,299 352,300" /><polygon fill="black" points="408,285 407,286 403,286 402,287 400,287 399,288 398,288 397,289 396,289 395,290 394,290 386,298 386,299 385,300 385,301 383,303 383,305 382,306 382,308 381,309 381,312 380,313 380,316 379,317 379,320 378,321 378,325 377,326 377,328 376,329 376,333 375,334 375,337 374,338 374,341 373,342 373,345 372,346 372,349 371,350 371,353 370,354 370,357 369,358 369,361 368,362 368,366 367,367 367,369 366,370 366,373 365,374 365,378 364,379 364,382 363,383 363,386 362,387 362,390 361,391 361,394 360,395 360,398 359,399 359,402 358,403 358,406 357,407 357,410 356,411 356,414 355,415 355,418 351,422 350,422 350,423 349,424 348,424 334,438 333,438 317,454 316,454 303,467 302,467 296,473 245,473 239,467 239,466 235,462 235,461 230,456 229,456 228,455 226,455 225,454 221,454 220,455 218,455 217,456 216,456 215,457 214,457 213,458 212,458 211,459 210,459 209,460 208,460 207,461 206,461 205,462 204,462 203,463 202,463 201,464 200,464 199,465 198,465 197,466 196,466 195,467 194,467 193,468 192,468 191,469 190,469 189,470 188,470 187,471 186,471 185,472 184,472 183,473 182,473 181,474 180,474 179,475 178,475 177,476 176,476 175,477 174,477 173,478 172,478 170,480 168,480 166,482 165,482 164,483 163,483 162,484 161,484 160,485 159,485 158,486 158,515 159,516 159,518 160,519 160,520 161,521 163,521 164,522 185,522 186,521 213,521 214,522 218,522 219,521 223,521 224,520 225,520 226,519 227,519 230,516 230,515 231,514 231,513 232,512 232,511 233,510 233,502 234,501 324,501 325,500 326,500 327,499 328,499 329,498 330,498 332,496 333,496 334,495 335,495 336,494 337,494 338,493 339,493 341,491 342,491 343,490 344,490 345,489 346,489 347,488 348,488 350,486 351,486 352,485 353,485 354,484 355,484 356,483 357,483 358,482 359,482 361,480 362,480 363,479 364,479 365,478 366,478 367,477 368,477 369,476 370,476 372,474 373,474 374,473 375,473 376,472 377,472 378,471 379,471 380,470 381,470 382,469 383,469 385,467 386,467 387,466 388,466 389,465 390,465 391,464 392,464 393,463 394,463 395,462 396,462 397,461 398,461 400,459 401,459 402,458 403,458 404,457 405,457 406,456 407,456 408,455 409,455 410,454 411,454 412,453 413,453 415,451 416,451 417,450 418,450 419,449 420,449 421,448 422,448 423,447 424,447 425,446 426,446 427,445 428,445 430,443 431,443 432,442 433,443 433,490 432,491 415,491 414,492 412,492 411,493 410,493 409,494 408,494 405,497 405,498 404,499 404,500 403,501 403,503 402,504 402,522 469,522 470,521 473,521 474,520 475,520 476,519 477,519 482,514 482,513 483,512 483,511 484,510 484,508 485,507 485,503 486,502 486,498 487,497 487,493 488,492 488,488 489,487 489,483 490,482 490,478 491,477 491,473 492,472 492,469 493,468 493,464 494,463 494,459 495,458 495,454 496,453 496,449 497,448 497,445 498,444 498,440 499,439 499,435 500,434 500,430 501,429 501,425 502,424 502,422 501,421 501,420 500,419 500,418 499,417 499,416 498,415 498,414 496,412 496,411 495,410 495,409 494,408 494,407 493,406 493,405 492,404 492,403 491,402 491,401 489,399 489,398 488,397 488,396 487,395 487,394 486,393 486,392 485,391 485,390 484,389 484,388 482,386 482,385 481,384 481,383 480,382 480,381 479,380 479,379 478,378 478,377 477,376 477,375 476,374 476,373 474,371 474,370 473,369 473,368 472,367 472,366 471,365 471,364 470,363 470,362 469,361 469,360 467,358 467,357 466,356 466,355 465,354 465,353 464,352 464,351 463,350 463,349 462,348 462,347 461,346 461,345 459,343 459,342 458,341 458,340 457,339 457,338 456,337 456,336 455,335 455,334 454,333 454,332 453,331 453,330 452,329 452,328 451,327 451,326 449,324 449,323 448,322 448,321 447,320 447,319 446,318 446,317 445,316 445,315 444,314 444,313 443,312 443,311 442,310 442,309 441,308 441,307 439,305 439,304 438,303 438,302 437,301 437,300 435,298 435,297 429,291 428,291 426,289 425,289 424,288 423,288 422,287 420,287 419,286 415,286 414,285" /><polygon fill="black" points="662,246 661,247 659,247 658,248 656,248 655,249 653,249 652,250 651,250 650,251 649,251 647,253 646,253 644,255 643,255 636,262 636,263 633,266 633,267 632,268 632,269 631,270 631,271 630,272 630,273 629,274 629,276 628,277 628,279 627,280 627,284 626,285 626,294 652,294 652,288 653,287 653,285 654,284 654,283 655,282 655,281 662,274 663,274 664,273 666,273 667,272 677,272 678,273 680,273 681,274 682,274 683,275 684,275 690,281 690,282 691,283 691,284 692,285 692,287 693,288 693,293 694,294 694,295 693,296 693,300 692,301 692,303 691,304 691,305 690,306 690,307 683,314 682,314 681,315 680,315 679,316 677,316 676,317 671,317 670,318 669,318 668,317 667,318 462,318 464,320 464,321 465,322 465,323 467,325 467,326 468,327 468,328 469,329 469,330 471,332 471,333 472,334 472,335 473,336 473,337 474,338 474,339 476,341 476,342 477,343 477,344 478,345 478,346 479,347 479,348 481,350 481,351 482,352 482,353 483,354 483,355 484,356 484,357 486,359 486,360 487,361 487,362 488,363 488,364 490,366 490,367 491,368 491,369 492,370 492,371 493,372 493,373 495,375 495,376 496,377 496,378 497,379 497,380 499,382 499,383 500,384 500,385 501,386 501,387 502,388 502,389 504,391 504,392 505,393 505,394 506,395 506,396 507,397 507,398 509,400 509,401 510,402 510,403 511,404 511,405 513,407 513,408 514,409 514,410 515,411 515,412 516,413 516,414 518,416 518,417 519,418 519,419 520,420 520,421 521,422 521,423 523,425 523,426 526,429 528,429 529,430 530,430 531,431 532,431 533,432 535,432 536,433 537,433 538,434 539,434 540,435 542,435 543,436 544,436 545,437 546,437 547,438 549,438 550,439 551,439 552,440 553,440 554,441 556,441 557,442 558,442 559,443 560,443 561,444 563,444 564,445 565,445 566,446 567,446 568,447 570,447 571,448 572,448 573,449 574,449 575,450 576,450 577,451 579,451 580,452 581,452 582,453 584,453 585,454 586,454 587,455 588,455 589,456 590,456 591,457 593,457 594,458 595,458 596,459 598,459 599,460 600,460 601,461 602,461 603,462 604,462 605,463 607,463 608,464 609,464 610,465 613,465 614,464 615,464 616,463 617,463 618,462 619,462 620,461 621,461 622,460 623,460 624,459 626,459 627,458 628,458 629,457 630,457 631,456 632,456 633,455 634,455 635,454 636,454 637,453 638,453 639,452 640,452 641,451 642,451 643,450 644,450 645,449 646,449 647,448 648,448 649,447 650,447 651,446 652,446 653,445 655,445 656,444 657,444 658,443 659,443 660,442 662,442 663,443 663,449 664,450 664,460 665,461 665,471 666,472 666,482 667,483 667,489 666,490 647,490 646,491 644,491 642,493 641,493 637,497 637,498 636,499 636,500 635,501 635,503 634,504 634,522 700,522 701,521 704,521 705,520 706,520 707,519 708,519 710,517 711,517 713,515 713,514 715,512 715,511 716,510 716,507 717,506 717,501 718,500 718,492 719,491 719,484 720,483 720,476 721,475 721,468 722,467 722,460 723,459 723,452 724,451 724,443 725,442 725,436 726,435 726,427 727,426 727,419 728,418 728,411 729,410 729,403 730,402 730,395 731,394 731,386 683,386 682,387 654,387 651,384 651,383 646,378 646,377 641,372 641,371 637,367 637,366 632,361 632,360 626,354 626,353 622,349 622,348 617,343 618,342 620,342 621,343 675,343 676,342 682,342 683,341 686,341 687,340 689,340 690,339 691,339 692,338 693,338 694,337 695,337 696,336 697,336 698,335 699,335 702,332 703,332 710,325 710,324 713,321 713,320 714,319 714,318 715,317 715,316 716,315 716,314 717,313 717,312 718,311 718,309 719,308 719,305 720,304 720,298 721,297 721,290 720,289 720,283 719,282 719,279 718,278 718,276 717,275 717,274 716,273 716,272 715,271 715,270 714,269 714,268 712,266 712,265 710,263 710,262 704,256 703,256 700,253 699,253 698,252 697,252 696,251 695,251 694,250 693,250 692,249 691,249 690,248 688,248 687,247 684,247 683,246" /></svg>